<svg xmlns="http://www.w3.org/2000/svg" width="500" height="500" preserveAspectRatio="xMidYMid meet" version="1.0" viewBox="0 0 375 375" zoomAndPan="magnify"><defs><clipPath id="9de9842642"><path d="M122.91 98.29h129.18v129.175H122.91Zm0 0" clip-rule="nonzero"/></clipPath><clipPath id="caa8c4d908"><path d="M187.5 98.29c-35.672 0-64.59 28.913-64.59 64.585s28.918 64.59 64.59 64.59c35.672 0 64.59-28.918 64.59-64.59 0-35.672-28.918-64.586-64.59-64.586Zm0 0" clip-rule="nonzero"/></clipPath><clipPath id="8ce5802701"><path d="M151.246 123.785h72.75V161h-72.75Zm0 0" clip-rule="nonzero"/></clipPath><clipPath id="47483390ba"><path d="M157 168h61v33.785h-61Zm0 0" clip-rule="nonzero"/></clipPath></defs><g clip-path="url(#9de9842642)"><g clip-path="url(#caa8c4d908)"><path fill="none" fill-rule="nonzero" d="M122.91 98.29h129.18v129.175H122.91Zm0 0"/></g></g><g clip-path="url(#8ce5802701)"><path fill="#000" fill-opacity="1" fill-rule="nonzero" d="m223.324 157.809-34.457-33.348a1.713 1.713 0 0 0-2.379 0l-34.457 33.348a1.688 1.688 0 0 0-.035 2.394 1.712 1.712 0 0 0 2.414.035l33.266-32.195 33.27 32.195a1.711 1.711 0 0 0 2.413-.035 1.688 1.688 0 0 0-.035-2.394Zm0 0"/></g><g clip-path="url(#47483390ba)"><path fill="#000" fill-opacity="1" fill-rule="nonzero" d="M215.824 168.914c-.941 0-1.707.758-1.707 1.695v24.711a3.118 3.118 0 0 1-3.125 3.11H164.36a3.12 3.12 0 0 1-3.125-3.11v-24.71c0-.938-.761-1.696-1.703-1.696-.941 0-1.707.758-1.707 1.695v24.711c0 3.582 2.93 6.5 6.535 6.5h46.633c3.606 0 6.535-2.918 6.535-6.5v-24.71c0-.938-.761-1.696-1.703-1.696Zm0 0"/></g><path fill="none" stroke="#000" stroke-linecap="round" stroke-linejoin="miter" stroke-miterlimit="4" stroke-opacity="1" stroke-width="3" d="M163.363 131.43h8.696M172.559 140.438v-8.672M163.61 148.504v-16.742"/><g fill="#000" fill-opacity="1"><g transform="translate(69.33 181.92)"><g><path d="M9.984.344c-2.054 0-3.886-.516-5.5-1.547C2.867-2.234 1.688-3.547.938-5.141l3.609-2.187a6.115 6.115 0 0 0 2.094 2.64c.945.668 2.078 1 3.39 1 1.196 0 2.188-.289 2.969-.874.79-.583 1.188-1.407 1.188-2.47 0-.913-.293-1.648-.876-2.202-.585-.563-1.343-1.036-2.28-1.422a98.93 98.93 0 0 0-2.938-1.156c-1.024-.383-2-.852-2.938-1.407a6.933 6.933 0 0 1-2.265-2.187c-.586-.906-.875-2.07-.875-3.5 0-1.54.351-2.848 1.062-3.922a6.8 6.8 0 0 1 2.828-2.422 8.971 8.971 0 0 1 3.782-.813c1.519 0 2.925.325 4.218.97 1.301.636 2.352 1.452 3.156 2.452l-2.953 2.703c-1.18-1.488-2.652-2.234-4.421-2.234-.938 0-1.75.246-2.438.735-.688.492-1.031 1.234-1.031 2.234 0 .887.289 1.594.875 2.125.582.523 1.336.969 2.265 1.344.938.375 1.914.765 2.938 1.171 1.031.399 2.008.899 2.937 1.5a7.102 7.102 0 0 1 2.282 2.329c.582.96.875 2.195.875 3.703 0 1.543-.383 2.867-1.141 3.968-.75 1.094-1.766 1.938-3.047 2.532-1.273.582-2.68.875-4.219.875Zm0 0"/></g></g></g><g fill="#000" fill-opacity="1"><g transform="translate(92.254 181.92)"><g><path d="M17.797-21.906H7.25v7.11h9.125v3.858H7.25v7.126h10.547V0H3.047v-25.719h14.75Zm0 0"/></g></g></g><g fill="#000" fill-opacity="1"><g transform="translate(115.692 181.92)"><g><path d="M7.031-3.906h9.047V0H2.828v-25.719h4.203Zm0 0"/></g></g></g><g fill="#000" fill-opacity="1"><g transform="translate(135.443 181.92)"><g><path d="M17.797-21.906H7.25v7.11h9.125v3.858H7.25V0H3.047v-25.719h14.75Zm0 0"/></g></g></g><g fill="#000" fill-opacity="1"><g transform="translate(170.949 181.27)"><g><path d="M21.922-26.469h4.281V0h-4.312L7.234-19.672V0H2.906v-26.469h4.328L21.922-6.844Zm0 0"/></g></g></g><g fill="#000" fill-opacity="1"><g transform="translate(218.707 182.67)"><g><path d="M18.313-25.719h4.671L13.672 0H9L-.297-25.719h4.672l6.984 20.407Zm0 0"/></g></g></g><g fill="#000" fill-opacity="1"><g transform="translate(244.845 182.67)"><g><path d="M17.797-21.906H7.25v7.11h9.125v3.858H7.25v7.126h10.547V0H3.047v-25.719h14.75Zm0 0"/></g></g></g><g fill="#000" fill-opacity="1"><g transform="translate(268.283 182.67)"><g><path d="M9.984.344c-2.054 0-3.886-.516-5.5-1.547C2.867-2.234 1.688-3.547.938-5.141l3.609-2.187a6.115 6.115 0 0 0 2.094 2.64c.945.668 2.078 1 3.39 1 1.196 0 2.188-.289 2.969-.874.79-.583 1.188-1.407 1.188-2.47 0-.913-.293-1.648-.876-2.202-.585-.563-1.343-1.036-2.28-1.422a98.93 98.93 0 0 0-2.938-1.156c-1.024-.383-2-.852-2.938-1.407a6.933 6.933 0 0 1-2.265-2.187c-.586-.906-.875-2.07-.875-3.5 0-1.54.351-2.848 1.062-3.922a6.8 6.8 0 0 1 2.828-2.422 8.971 8.971 0 0 1 3.782-.813c1.519 0 2.925.325 4.218.97 1.301.636 2.352 1.452 3.156 2.452l-2.953 2.703c-1.18-1.488-2.652-2.234-4.421-2.234-.938 0-1.75.246-2.438.735-.688.492-1.031 1.234-1.031 2.234 0 .887.289 1.594.875 2.125.582.523 1.336.969 2.265 1.344.938.375 1.914.765 2.938 1.171 1.031.399 2.008.899 2.937 1.5a7.102 7.102 0 0 1 2.282 2.329c.582.96.875 2.195.875 3.703 0 1.543-.383 2.867-1.141 3.968-.75 1.094-1.766 1.938-3.047 2.532-1.273.582-2.68.875-4.219.875Zm0 0"/></g></g></g><g fill="#000" fill-opacity="1"><g transform="translate(291.207 182.67)"><g><path d="M17.875-25.719v3.89h-6.813V0H6.907v-21.828H.078v-3.89Zm0 0"/></g></g></g></svg>
